# xmcd
#
# Track frame offsets:
#	150
#	16806
#	38300
#	53923
#	74746
#	93137
#	111759
#	136470
#	160889
#	180173
#	202280
#
# Disc length: 3096 seconds
#
# Revision: 0
# Processed by: cddbd v1.4PL0 Copyright (c) Steve Scherf et al.
# Submitted via: dBpowerAMP V4.0
#
DISCID=8d0c160b
DTITLE=nico wayne toussaint - my kind of blue
DYEAR=1998
DGENRE=Blues
TTITLE0=Going home
TTITLE1=Barbara
TTITLE2=Bad boy
TTITLE3=Give me a kiss baby
TTITLE4=Can't you tell
TTITLE5=Cheaper to keep her
TTITLE6=West helena blues
TTITLE7=I love you babe
TTITLE8=Fever
TTITLE9=Walking down collège street
TTITLE10=Bye bye
EXTD=
EXTT0=
EXTT1=
EXTT2=
EXTT3=
EXTT4=
EXTT5=
EXTT6=
EXTT7=
EXTT8=
EXTT9=
EXTT10=
PLAYORDER=
